<svg width="1524.000000" height="72.000000" viewBox="0 0 1524 72" fill="none" xmlns="http://www.w3.org/2000/svg" xmlns:xlink="http://www.w3.org/1999/xlink">
	<desc>
			Created with Pixso.
	</desc>
	<defs/>
	<rect id="Divider" rx="-0.500000" width="1523.000000" height="71.000000" transform="translate(0.500000 0.500000)" fill="#FFFFFF" fill-opacity="0"/>
	<rect id="Grid" rx="-0.500000" width="291.000000" height="71.000000" transform="translate(308.500000 0.500000)" fill="#FFFFFF" fill-opacity="0"/>
	<rect id="Row" rx="-0.500000" width="291.000000" height="5.000000" transform="translate(308.500000 0.500000)" fill="#FFFFFF" fill-opacity="0"/>
	<circle id="Ellipse 6" cx="399.000000" cy="3.000000" r="3.000000" fill="#F3F0EA" fill-opacity="1.000000"/>
	<circle id="Ellipse 11" cx="509.000000" cy="3.000000" r="3.000000" fill="#F3F0EA" fill-opacity="1.000000"/>
	<circle id="Ellipse 2" cx="311.000000" cy="3.000000" r="3.000000" fill="#F3F0EA" fill-opacity="1.000000"/>
	<circle id="Ellipse 7" cx="421.000000" cy="3.000000" r="3.000000" fill="#F3F0EA" fill-opacity="1.000000"/>
	<circle id="Ellipse 12" cx="531.000000" cy="3.000000" r="3.000000" fill="#F3F0EA" fill-opacity="1.000000"/>
	<circle id="Ellipse 3" cx="333.000000" cy="3.000000" r="3.000000" fill="#F3F0EA" fill-opacity="1.000000"/>
	<circle id="Ellipse 8" cx="443.000000" cy="3.000000" r="3.000000" fill="#F3F0EA" fill-opacity="1.000000"/>
	<circle id="Ellipse 13" cx="553.000000" cy="3.000000" r="3.000000" fill="#F3F0EA" fill-opacity="1.000000"/>
	<circle id="Ellipse 4" cx="355.000000" cy="3.000000" r="3.000000" fill="#F3F0EA" fill-opacity="1.000000"/>
	<circle id="Ellipse 9" cx="465.000000" cy="3.000000" r="3.000000" fill="#F3F0EA" fill-opacity="1.000000"/>
	<circle id="Ellipse 14" cx="575.000000" cy="3.000000" r="3.000000" fill="#F3F0EA" fill-opacity="1.000000"/>
	<circle id="Ellipse 5" cx="377.000000" cy="3.000000" r="3.000000" fill="#F3F0EA" fill-opacity="1.000000"/>
	<circle id="Ellipse 10" cx="487.000000" cy="3.000000" r="3.000000" fill="#F3F0EA" fill-opacity="1.000000"/>
	<circle id="Ellipse 15" cx="597.000000" cy="3.000000" r="3.000000" fill="#F3F0EA" fill-opacity="1.000000"/>
	<rect id="Row" rx="-0.500000" width="291.000000" height="5.000000" transform="translate(308.500000 44.500000)" fill="#FFFFFF" fill-opacity="0"/>
	<circle id="Ellipse 6" cx="399.000000" cy="47.000000" r="3.000000" fill="#F3F0EA" fill-opacity="1.000000"/>
	<circle id="Ellipse 11" cx="509.000000" cy="47.000000" r="3.000000" fill="#F3F0EA" fill-opacity="1.000000"/>
	<circle id="Ellipse 2" cx="311.000000" cy="47.000000" r="3.000000" fill="#F3F0EA" fill-opacity="1.000000"/>
	<circle id="Ellipse 7" cx="421.000000" cy="47.000000" r="3.000000" fill="#F3F0EA" fill-opacity="1.000000"/>
	<circle id="Ellipse 12" cx="531.000000" cy="47.000000" r="3.000000" fill="#F3F0EA" fill-opacity="1.000000"/>
	<circle id="Ellipse 3" cx="333.000000" cy="47.000000" r="3.000000" fill="#F3F0EA" fill-opacity="1.000000"/>
	<circle id="Ellipse 8" cx="443.000000" cy="47.000000" r="3.000000" fill="#F3F0EA" fill-opacity="1.000000"/>
	<circle id="Ellipse 13" cx="553.000000" cy="47.000000" r="3.000000" fill="#F3F0EA" fill-opacity="1.000000"/>
	<circle id="Ellipse 4" cx="355.000000" cy="47.000000" r="3.000000" fill="#F3F0EA" fill-opacity="1.000000"/>
	<circle id="Ellipse 9" cx="465.000000" cy="47.000000" r="3.000000" fill="#F3F0EA" fill-opacity="1.000000"/>
	<circle id="Ellipse 14" cx="575.000000" cy="47.000000" r="3.000000" fill="#F3F0EA" fill-opacity="1.000000"/>
	<circle id="Ellipse 5" cx="377.000000" cy="47.000000" r="3.000000" fill="#F3F0EA" fill-opacity="1.000000"/>
	<circle id="Ellipse 10" cx="487.000000" cy="47.000000" r="3.000000" fill="#F3F0EA" fill-opacity="1.000000"/>
	<circle id="Ellipse 15" cx="597.000000" cy="47.000000" r="3.000000" fill="#F3F0EA" fill-opacity="1.000000"/>
	<rect id="Row" rx="-0.500000" width="291.000000" height="5.000000" transform="translate(308.500000 22.500000)" fill="#FFFFFF" fill-opacity="0"/>
	<circle id="Ellipse 6" cx="399.000000" cy="25.000000" r="3.000000" fill="#F3F0EA" fill-opacity="1.000000"/>
	<circle id="Ellipse 11" cx="509.000000" cy="25.000000" r="3.000000" fill="#F3F0EA" fill-opacity="1.000000"/>
	<circle id="Ellipse 2" cx="311.000000" cy="25.000000" r="3.000000" fill="#F3F0EA" fill-opacity="1.000000"/>
	<circle id="Ellipse 7" cx="421.000000" cy="25.000000" r="3.000000" fill="#F3F0EA" fill-opacity="1.000000"/>
	<circle id="Ellipse 12" cx="531.000000" cy="25.000000" r="3.000000" fill="#F3F0EA" fill-opacity="1.000000"/>
	<circle id="Ellipse 3" cx="333.000000" cy="25.000000" r="3.000000" fill="#F3F0EA" fill-opacity="1.000000"/>
	<circle id="Ellipse 8" cx="443.000000" cy="25.000000" r="3.000000" fill="#F3F0EA" fill-opacity="1.000000"/>
	<circle id="Ellipse 13" cx="553.000000" cy="25.000000" r="3.000000" fill="#F3F0EA" fill-opacity="1.000000"/>
	<circle id="Ellipse 4" cx="355.000000" cy="25.000000" r="3.000000" fill="#F3F0EA" fill-opacity="1.000000"/>
	<circle id="Ellipse 9" cx="465.000000" cy="25.000000" r="3.000000" fill="#F3F0EA" fill-opacity="1.000000"/>
	<circle id="Ellipse 14" cx="575.000000" cy="25.000000" r="3.000000" fill="#F3F0EA" fill-opacity="1.000000"/>
	<circle id="Ellipse 5" cx="377.000000" cy="25.000000" r="3.000000" fill="#F3F0EA" fill-opacity="1.000000"/>
	<circle id="Ellipse 10" cx="487.000000" cy="25.000000" r="3.000000" fill="#F3F0EA" fill-opacity="1.000000"/>
	<circle id="Ellipse 15" cx="597.000000" cy="25.000000" r="3.000000" fill="#F3F0EA" fill-opacity="1.000000"/>
	<rect id="Row" rx="-0.500000" width="291.000000" height="5.000000" transform="translate(308.500000 66.500000)" fill="#FFFFFF" fill-opacity="0"/>
	<circle id="Ellipse 6" cx="399.000000" cy="69.000000" r="3.000000" fill="#F3F0EA" fill-opacity="1.000000"/>
	<circle id="Ellipse 11" cx="509.000000" cy="69.000000" r="3.000000" fill="#F3F0EA" fill-opacity="1.000000"/>
	<circle id="Ellipse 2" cx="311.000000" cy="69.000000" r="3.000000" fill="#F3F0EA" fill-opacity="1.000000"/>
	<circle id="Ellipse 7" cx="421.000000" cy="69.000000" r="3.000000" fill="#F3F0EA" fill-opacity="1.000000"/>
	<circle id="Ellipse 12" cx="531.000000" cy="69.000000" r="3.000000" fill="#F3F0EA" fill-opacity="1.000000"/>
	<circle id="Ellipse 3" cx="333.000000" cy="69.000000" r="3.000000" fill="#F3F0EA" fill-opacity="1.000000"/>
	<circle id="Ellipse 8" cx="443.000000" cy="69.000000" r="3.000000" fill="#F3F0EA" fill-opacity="1.000000"/>
	<circle id="Ellipse 13" cx="553.000000" cy="69.000000" r="3.000000" fill="#F3F0EA" fill-opacity="1.000000"/>
	<circle id="Ellipse 4" cx="355.000000" cy="69.000000" r="3.000000" fill="#F3F0EA" fill-opacity="1.000000"/>
	<circle id="Ellipse 9" cx="465.000000" cy="69.000000" r="3.000000" fill="#F3F0EA" fill-opacity="1.000000"/>
	<circle id="Ellipse 14" cx="575.000000" cy="69.000000" r="3.000000" fill="#F3F0EA" fill-opacity="1.000000"/>
	<circle id="Ellipse 5" cx="377.000000" cy="69.000000" r="3.000000" fill="#F3F0EA" fill-opacity="1.000000"/>
	<circle id="Ellipse 10" cx="487.000000" cy="69.000000" r="3.000000" fill="#F3F0EA" fill-opacity="1.000000"/>
	<circle id="Ellipse 15" cx="597.000000" cy="69.000000" r="3.000000" fill="#F3F0EA" fill-opacity="1.000000"/>
	<rect id="Grid" rx="-0.500000" width="291.000000" height="71.000000" transform="translate(0.500000 0.500000)" fill="#FFFFFF" fill-opacity="0"/>
	<rect id="Row" rx="-0.500000" width="291.000000" height="5.000000" transform="translate(0.500000 0.500000)" fill="#FFFFFF" fill-opacity="0"/>
	<circle id="Ellipse 6" cx="91.000000" cy="3.000000" r="3.000000" fill="#F3F0EA" fill-opacity="1.000000"/>
	<circle id="Ellipse 11" cx="201.000000" cy="3.000000" r="3.000000" fill="#F3F0EA" fill-opacity="1.000000"/>
	<circle id="Ellipse 2" cx="3.000000" cy="3.000000" r="3.000000" fill="#F3F0EA" fill-opacity="1.000000"/>
	<circle id="Ellipse 7" cx="113.000000" cy="3.000000" r="3.000000" fill="#F3F0EA" fill-opacity="1.000000"/>
	<circle id="Ellipse 12" cx="223.000000" cy="3.000000" r="3.000000" fill="#F3F0EA" fill-opacity="1.000000"/>
	<circle id="Ellipse 3" cx="25.000000" cy="3.000000" r="3.000000" fill="#F3F0EA" fill-opacity="1.000000"/>
	<circle id="Ellipse 8" cx="135.000000" cy="3.000000" r="3.000000" fill="#F3F0EA" fill-opacity="1.000000"/>
	<circle id="Ellipse 13" cx="245.000000" cy="3.000000" r="3.000000" fill="#F3F0EA" fill-opacity="1.000000"/>
	<circle id="Ellipse 4" cx="47.000000" cy="3.000000" r="3.000000" fill="#F3F0EA" fill-opacity="1.000000"/>
	<circle id="Ellipse 9" cx="157.000000" cy="3.000000" r="3.000000" fill="#F3F0EA" fill-opacity="1.000000"/>
	<circle id="Ellipse 14" cx="267.000000" cy="3.000000" r="3.000000" fill="#F3F0EA" fill-opacity="1.000000"/>
	<circle id="Ellipse 5" cx="69.000000" cy="3.000000" r="3.000000" fill="#F3F0EA" fill-opacity="1.000000"/>
	<circle id="Ellipse 10" cx="179.000000" cy="3.000000" r="3.000000" fill="#F3F0EA" fill-opacity="1.000000"/>
	<circle id="Ellipse 15" cx="289.000000" cy="3.000000" r="3.000000" fill="#F3F0EA" fill-opacity="1.000000"/>
	<rect id="Row" rx="-0.500000" width="291.000000" height="5.000000" transform="translate(0.500000 44.500000)" fill="#FFFFFF" fill-opacity="0"/>
	<circle id="Ellipse 6" cx="91.000000" cy="47.000000" r="3.000000" fill="#F3F0EA" fill-opacity="1.000000"/>
	<circle id="Ellipse 11" cx="201.000000" cy="47.000000" r="3.000000" fill="#F3F0EA" fill-opacity="1.000000"/>
	<circle id="Ellipse 2" cx="3.000000" cy="47.000000" r="3.000000" fill="#F3F0EA" fill-opacity="1.000000"/>
	<circle id="Ellipse 7" cx="113.000000" cy="47.000000" r="3.000000" fill="#F3F0EA" fill-opacity="1.000000"/>
	<circle id="Ellipse 12" cx="223.000000" cy="47.000000" r="3.000000" fill="#F3F0EA" fill-opacity="1.000000"/>
	<circle id="Ellipse 3" cx="25.000000" cy="47.000000" r="3.000000" fill="#F3F0EA" fill-opacity="1.000000"/>
	<circle id="Ellipse 8" cx="135.000000" cy="47.000000" r="3.000000" fill="#F3F0EA" fill-opacity="1.000000"/>
	<circle id="Ellipse 13" cx="245.000000" cy="47.000000" r="3.000000" fill="#F3F0EA" fill-opacity="1.000000"/>
	<circle id="Ellipse 4" cx="47.000000" cy="47.000000" r="3.000000" fill="#F3F0EA" fill-opacity="1.000000"/>
	<circle id="Ellipse 9" cx="157.000000" cy="47.000000" r="3.000000" fill="#F3F0EA" fill-opacity="1.000000"/>
	<circle id="Ellipse 14" cx="267.000000" cy="47.000000" r="3.000000" fill="#F3F0EA" fill-opacity="1.000000"/>
	<circle id="Ellipse 5" cx="69.000000" cy="47.000000" r="3.000000" fill="#F3F0EA" fill-opacity="1.000000"/>
	<circle id="Ellipse 10" cx="179.000000" cy="47.000000" r="3.000000" fill="#F3F0EA" fill-opacity="1.000000"/>
	<circle id="Ellipse 15" cx="289.000000" cy="47.000000" r="3.000000" fill="#F3F0EA" fill-opacity="1.000000"/>
	<rect id="Row" rx="-0.500000" width="291.000000" height="5.000000" transform="translate(0.500000 22.500000)" fill="#FFFFFF" fill-opacity="0"/>
	<circle id="Ellipse 6" cx="91.000000" cy="25.000000" r="3.000000" fill="#F3F0EA" fill-opacity="1.000000"/>
	<circle id="Ellipse 11" cx="201.000000" cy="25.000000" r="3.000000" fill="#F3F0EA" fill-opacity="1.000000"/>
	<circle id="Ellipse 2" cx="3.000000" cy="25.000000" r="3.000000" fill="#F3F0EA" fill-opacity="1.000000"/>
	<circle id="Ellipse 7" cx="113.000000" cy="25.000000" r="3.000000" fill="#F3F0EA" fill-opacity="1.000000"/>
	<circle id="Ellipse 12" cx="223.000000" cy="25.000000" r="3.000000" fill="#F3F0EA" fill-opacity="1.000000"/>
	<circle id="Ellipse 3" cx="25.000000" cy="25.000000" r="3.000000" fill="#F3F0EA" fill-opacity="1.000000"/>
	<circle id="Ellipse 8" cx="135.000000" cy="25.000000" r="3.000000" fill="#F3F0EA" fill-opacity="1.000000"/>
	<circle id="Ellipse 13" cx="245.000000" cy="25.000000" r="3.000000" fill="#F3F0EA" fill-opacity="1.000000"/>
	<circle id="Ellipse 4" cx="47.000000" cy="25.000000" r="3.000000" fill="#F3F0EA" fill-opacity="1.000000"/>
	<circle id="Ellipse 9" cx="157.000000" cy="25.000000" r="3.000000" fill="#F3F0EA" fill-opacity="1.000000"/>
	<circle id="Ellipse 14" cx="267.000000" cy="25.000000" r="3.000000" fill="#F3F0EA" fill-opacity="1.000000"/>
	<circle id="Ellipse 5" cx="69.000000" cy="25.000000" r="3.000000" fill="#F3F0EA" fill-opacity="1.000000"/>
	<circle id="Ellipse 10" cx="179.000000" cy="25.000000" r="3.000000" fill="#F3F0EA" fill-opacity="1.000000"/>
	<circle id="Ellipse 15" cx="289.000000" cy="25.000000" r="3.000000" fill="#F3F0EA" fill-opacity="1.000000"/>
	<rect id="Row" rx="-0.500000" width="291.000000" height="5.000000" transform="translate(0.500000 66.500000)" fill="#FFFFFF" fill-opacity="0"/>
	<circle id="Ellipse 6" cx="91.000000" cy="69.000000" r="3.000000" fill="#F3F0EA" fill-opacity="1.000000"/>
	<circle id="Ellipse 11" cx="201.000000" cy="69.000000" r="3.000000" fill="#F3F0EA" fill-opacity="1.000000"/>
	<circle id="Ellipse 2" cx="3.000000" cy="69.000000" r="3.000000" fill="#F3F0EA" fill-opacity="1.000000"/>
	<circle id="Ellipse 7" cx="113.000000" cy="69.000000" r="3.000000" fill="#F3F0EA" fill-opacity="1.000000"/>
	<circle id="Ellipse 12" cx="223.000000" cy="69.000000" r="3.000000" fill="#F3F0EA" fill-opacity="1.000000"/>
	<circle id="Ellipse 3" cx="25.000000" cy="69.000000" r="3.000000" fill="#F3F0EA" fill-opacity="1.000000"/>
	<circle id="Ellipse 8" cx="135.000000" cy="69.000000" r="3.000000" fill="#F3F0EA" fill-opacity="1.000000"/>
	<circle id="Ellipse 13" cx="245.000000" cy="69.000000" r="3.000000" fill="#F3F0EA" fill-opacity="1.000000"/>
	<circle id="Ellipse 4" cx="47.000000" cy="69.000000" r="3.000000" fill="#F3F0EA" fill-opacity="1.000000"/>
	<circle id="Ellipse 9" cx="157.000000" cy="69.000000" r="3.000000" fill="#F3F0EA" fill-opacity="1.000000"/>
	<circle id="Ellipse 14" cx="267.000000" cy="69.000000" r="3.000000" fill="#F3F0EA" fill-opacity="1.000000"/>
	<circle id="Ellipse 5" cx="69.000000" cy="69.000000" r="3.000000" fill="#F3F0EA" fill-opacity="1.000000"/>
	<circle id="Ellipse 10" cx="179.000000" cy="69.000000" r="3.000000" fill="#F3F0EA" fill-opacity="1.000000"/>
	<circle id="Ellipse 15" cx="289.000000" cy="69.000000" r="3.000000" fill="#F3F0EA" fill-opacity="1.000000"/>
	<rect id="Grid" rx="-0.500000" width="291.000000" height="71.000000" transform="translate(924.500000 0.500000)" fill="#FFFFFF" fill-opacity="0"/>
	<rect id="Row" rx="-0.500000" width="291.000000" height="5.000000" transform="translate(924.500000 0.500000)" fill="#FFFFFF" fill-opacity="0"/>
	<circle id="Ellipse 6" cx="1015.000000" cy="3.000000" r="3.000000" fill="#F3F0EA" fill-opacity="1.000000"/>
	<circle id="Ellipse 11" cx="1125.000000" cy="3.000000" r="3.000000" fill="#F3F0EA" fill-opacity="1.000000"/>
	<circle id="Ellipse 2" cx="927.000000" cy="3.000000" r="3.000000" fill="#F3F0EA" fill-opacity="1.000000"/>
	<circle id="Ellipse 7" cx="1037.000000" cy="3.000000" r="3.000000" fill="#F3F0EA" fill-opacity="1.000000"/>
	<circle id="Ellipse 12" cx="1147.000000" cy="3.000000" r="3.000000" fill="#F3F0EA" fill-opacity="1.000000"/>
	<circle id="Ellipse 3" cx="949.000000" cy="3.000000" r="3.000000" fill="#F3F0EA" fill-opacity="1.000000"/>
	<circle id="Ellipse 8" cx="1059.000000" cy="3.000000" r="3.000000" fill="#F3F0EA" fill-opacity="1.000000"/>
	<circle id="Ellipse 13" cx="1169.000000" cy="3.000000" r="3.000000" fill="#F3F0EA" fill-opacity="1.000000"/>
	<circle id="Ellipse 4" cx="971.000000" cy="3.000000" r="3.000000" fill="#F3F0EA" fill-opacity="1.000000"/>
	<circle id="Ellipse 9" cx="1081.000000" cy="3.000000" r="3.000000" fill="#F3F0EA" fill-opacity="1.000000"/>
	<circle id="Ellipse 14" cx="1191.000000" cy="3.000000" r="3.000000" fill="#F3F0EA" fill-opacity="1.000000"/>
	<circle id="Ellipse 5" cx="993.000000" cy="3.000000" r="3.000000" fill="#F3F0EA" fill-opacity="1.000000"/>
	<circle id="Ellipse 10" cx="1103.000000" cy="3.000000" r="3.000000" fill="#F3F0EA" fill-opacity="1.000000"/>
	<circle id="Ellipse 15" cx="1213.000000" cy="3.000000" r="3.000000" fill="#F3F0EA" fill-opacity="1.000000"/>
	<rect id="Row" rx="-0.500000" width="291.000000" height="5.000000" transform="translate(924.500000 44.500000)" fill="#FFFFFF" fill-opacity="0"/>
	<circle id="Ellipse 6" cx="1015.000000" cy="47.000000" r="3.000000" fill="#F3F0EA" fill-opacity="1.000000"/>
	<circle id="Ellipse 11" cx="1125.000000" cy="47.000000" r="3.000000" fill="#F3F0EA" fill-opacity="1.000000"/>
	<circle id="Ellipse 2" cx="927.000000" cy="47.000000" r="3.000000" fill="#F3F0EA" fill-opacity="1.000000"/>
	<circle id="Ellipse 7" cx="1037.000000" cy="47.000000" r="3.000000" fill="#F3F0EA" fill-opacity="1.000000"/>
	<circle id="Ellipse 12" cx="1147.000000" cy="47.000000" r="3.000000" fill="#F3F0EA" fill-opacity="1.000000"/>
	<circle id="Ellipse 3" cx="949.000000" cy="47.000000" r="3.000000" fill="#F3F0EA" fill-opacity="1.000000"/>
	<circle id="Ellipse 8" cx="1059.000000" cy="47.000000" r="3.000000" fill="#F3F0EA" fill-opacity="1.000000"/>
	<circle id="Ellipse 13" cx="1169.000000" cy="47.000000" r="3.000000" fill="#F3F0EA" fill-opacity="1.000000"/>
	<circle id="Ellipse 4" cx="971.000000" cy="47.000000" r="3.000000" fill="#F3F0EA" fill-opacity="1.000000"/>
	<circle id="Ellipse 9" cx="1081.000000" cy="47.000000" r="3.000000" fill="#F3F0EA" fill-opacity="1.000000"/>
	<circle id="Ellipse 14" cx="1191.000000" cy="47.000000" r="3.000000" fill="#F3F0EA" fill-opacity="1.000000"/>
	<circle id="Ellipse 5" cx="993.000000" cy="47.000000" r="3.000000" fill="#F3F0EA" fill-opacity="1.000000"/>
	<circle id="Ellipse 10" cx="1103.000000" cy="47.000000" r="3.000000" fill="#F3F0EA" fill-opacity="1.000000"/>
	<circle id="Ellipse 15" cx="1213.000000" cy="47.000000" r="3.000000" fill="#F3F0EA" fill-opacity="1.000000"/>
	<rect id="Row" rx="-0.500000" width="291.000000" height="5.000000" transform="translate(924.500000 22.500000)" fill="#FFFFFF" fill-opacity="0"/>
	<circle id="Ellipse 6" cx="1015.000000" cy="25.000000" r="3.000000" fill="#F3F0EA" fill-opacity="1.000000"/>
	<circle id="Ellipse 11" cx="1125.000000" cy="25.000000" r="3.000000" fill="#F3F0EA" fill-opacity="1.000000"/>
	<circle id="Ellipse 2" cx="927.000000" cy="25.000000" r="3.000000" fill="#F3F0EA" fill-opacity="1.000000"/>
	<circle id="Ellipse 7" cx="1037.000000" cy="25.000000" r="3.000000" fill="#F3F0EA" fill-opacity="1.000000"/>
	<circle id="Ellipse 12" cx="1147.000000" cy="25.000000" r="3.000000" fill="#F3F0EA" fill-opacity="1.000000"/>
	<circle id="Ellipse 3" cx="949.000000" cy="25.000000" r="3.000000" fill="#F3F0EA" fill-opacity="1.000000"/>
	<circle id="Ellipse 8" cx="1059.000000" cy="25.000000" r="3.000000" fill="#F3F0EA" fill-opacity="1.000000"/>
	<circle id="Ellipse 13" cx="1169.000000" cy="25.000000" r="3.000000" fill="#F3F0EA" fill-opacity="1.000000"/>
	<circle id="Ellipse 4" cx="971.000000" cy="25.000000" r="3.000000" fill="#F3F0EA" fill-opacity="1.000000"/>
	<circle id="Ellipse 9" cx="1081.000000" cy="25.000000" r="3.000000" fill="#F3F0EA" fill-opacity="1.000000"/>
	<circle id="Ellipse 14" cx="1191.000000" cy="25.000000" r="3.000000" fill="#F3F0EA" fill-opacity="1.000000"/>
	<circle id="Ellipse 5" cx="993.000000" cy="25.000000" r="3.000000" fill="#F3F0EA" fill-opacity="1.000000"/>
	<circle id="Ellipse 10" cx="1103.000000" cy="25.000000" r="3.000000" fill="#F3F0EA" fill-opacity="1.000000"/>
	<circle id="Ellipse 15" cx="1213.000000" cy="25.000000" r="3.000000" fill="#F3F0EA" fill-opacity="1.000000"/>
	<rect id="Row" rx="-0.500000" width="291.000000" height="5.000000" transform="translate(924.500000 66.500000)" fill="#FFFFFF" fill-opacity="0"/>
	<circle id="Ellipse 6" cx="1015.000000" cy="69.000000" r="3.000000" fill="#F3F0EA" fill-opacity="1.000000"/>
	<circle id="Ellipse 11" cx="1125.000000" cy="69.000000" r="3.000000" fill="#F3F0EA" fill-opacity="1.000000"/>
	<circle id="Ellipse 2" cx="927.000000" cy="69.000000" r="3.000000" fill="#F3F0EA" fill-opacity="1.000000"/>
	<circle id="Ellipse 7" cx="1037.000000" cy="69.000000" r="3.000000" fill="#F3F0EA" fill-opacity="1.000000"/>
	<circle id="Ellipse 12" cx="1147.000000" cy="69.000000" r="3.000000" fill="#F3F0EA" fill-opacity="1.000000"/>
	<circle id="Ellipse 3" cx="949.000000" cy="69.000000" r="3.000000" fill="#F3F0EA" fill-opacity="1.000000"/>
	<circle id="Ellipse 8" cx="1059.000000" cy="69.000000" r="3.000000" fill="#F3F0EA" fill-opacity="1.000000"/>
	<circle id="Ellipse 13" cx="1169.000000" cy="69.000000" r="3.000000" fill="#F3F0EA" fill-opacity="1.000000"/>
	<circle id="Ellipse 4" cx="971.000000" cy="69.000000" r="3.000000" fill="#F3F0EA" fill-opacity="1.000000"/>
	<circle id="Ellipse 9" cx="1081.000000" cy="69.000000" r="3.000000" fill="#F3F0EA" fill-opacity="1.000000"/>
	<circle id="Ellipse 14" cx="1191.000000" cy="69.000000" r="3.000000" fill="#F3F0EA" fill-opacity="1.000000"/>
	<circle id="Ellipse 5" cx="993.000000" cy="69.000000" r="3.000000" fill="#F3F0EA" fill-opacity="1.000000"/>
	<circle id="Ellipse 10" cx="1103.000000" cy="69.000000" r="3.000000" fill="#F3F0EA" fill-opacity="1.000000"/>
	<circle id="Ellipse 15" cx="1213.000000" cy="69.000000" r="3.000000" fill="#F3F0EA" fill-opacity="1.000000"/>
	<rect id="Grid" rx="-0.500000" width="291.000000" height="71.000000" transform="translate(616.500000 0.500000)" fill="#FFFFFF" fill-opacity="0"/>
	<rect id="Row" rx="-0.500000" width="291.000000" height="5.000000" transform="translate(616.500000 0.500000)" fill="#FFFFFF" fill-opacity="0"/>
	<circle id="Ellipse 6" cx="707.000000" cy="3.000000" r="3.000000" fill="#F3F0EA" fill-opacity="1.000000"/>
	<circle id="Ellipse 11" cx="817.000000" cy="3.000000" r="3.000000" fill="#F3F0EA" fill-opacity="1.000000"/>
	<circle id="Ellipse 2" cx="619.000000" cy="3.000000" r="3.000000" fill="#F3F0EA" fill-opacity="1.000000"/>
	<circle id="Ellipse 7" cx="729.000000" cy="3.000000" r="3.000000" fill="#F3F0EA" fill-opacity="1.000000"/>
	<circle id="Ellipse 12" cx="839.000000" cy="3.000000" r="3.000000" fill="#F3F0EA" fill-opacity="1.000000"/>
	<circle id="Ellipse 3" cx="641.000000" cy="3.000000" r="3.000000" fill="#F3F0EA" fill-opacity="1.000000"/>
	<circle id="Ellipse 8" cx="751.000000" cy="3.000000" r="3.000000" fill="#F3F0EA" fill-opacity="1.000000"/>
	<circle id="Ellipse 13" cx="861.000000" cy="3.000000" r="3.000000" fill="#F3F0EA" fill-opacity="1.000000"/>
	<circle id="Ellipse 4" cx="663.000000" cy="3.000000" r="3.000000" fill="#F3F0EA" fill-opacity="1.000000"/>
	<circle id="Ellipse 9" cx="773.000000" cy="3.000000" r="3.000000" fill="#F3F0EA" fill-opacity="1.000000"/>
	<circle id="Ellipse 14" cx="883.000000" cy="3.000000" r="3.000000" fill="#F3F0EA" fill-opacity="1.000000"/>
	<circle id="Ellipse 5" cx="685.000000" cy="3.000000" r="3.000000" fill="#F3F0EA" fill-opacity="1.000000"/>
	<circle id="Ellipse 10" cx="795.000000" cy="3.000000" r="3.000000" fill="#F3F0EA" fill-opacity="1.000000"/>
	<circle id="Ellipse 15" cx="905.000000" cy="3.000000" r="3.000000" fill="#F3F0EA" fill-opacity="1.000000"/>
	<rect id="Row" rx="-0.500000" width="291.000000" height="5.000000" transform="translate(616.500000 44.500000)" fill="#FFFFFF" fill-opacity="0"/>
	<circle id="Ellipse 6" cx="707.000000" cy="47.000000" r="3.000000" fill="#F3F0EA" fill-opacity="1.000000"/>
	<circle id="Ellipse 11" cx="817.000000" cy="47.000000" r="3.000000" fill="#F3F0EA" fill-opacity="1.000000"/>
	<circle id="Ellipse 2" cx="619.000000" cy="47.000000" r="3.000000" fill="#F3F0EA" fill-opacity="1.000000"/>
	<circle id="Ellipse 7" cx="729.000000" cy="47.000000" r="3.000000" fill="#F3F0EA" fill-opacity="1.000000"/>
	<circle id="Ellipse 12" cx="839.000000" cy="47.000000" r="3.000000" fill="#F3F0EA" fill-opacity="1.000000"/>
	<circle id="Ellipse 3" cx="641.000000" cy="47.000000" r="3.000000" fill="#F3F0EA" fill-opacity="1.000000"/>
	<circle id="Ellipse 8" cx="751.000000" cy="47.000000" r="3.000000" fill="#F3F0EA" fill-opacity="1.000000"/>
	<circle id="Ellipse 13" cx="861.000000" cy="47.000000" r="3.000000" fill="#F3F0EA" fill-opacity="1.000000"/>
	<circle id="Ellipse 4" cx="663.000000" cy="47.000000" r="3.000000" fill="#F3F0EA" fill-opacity="1.000000"/>
	<circle id="Ellipse 9" cx="773.000000" cy="47.000000" r="3.000000" fill="#F3F0EA" fill-opacity="1.000000"/>
	<circle id="Ellipse 14" cx="883.000000" cy="47.000000" r="3.000000" fill="#F3F0EA" fill-opacity="1.000000"/>
	<circle id="Ellipse 5" cx="685.000000" cy="47.000000" r="3.000000" fill="#F3F0EA" fill-opacity="1.000000"/>
	<circle id="Ellipse 10" cx="795.000000" cy="47.000000" r="3.000000" fill="#F3F0EA" fill-opacity="1.000000"/>
	<circle id="Ellipse 15" cx="905.000000" cy="47.000000" r="3.000000" fill="#F3F0EA" fill-opacity="1.000000"/>
	<rect id="Row" rx="-0.500000" width="291.000000" height="5.000000" transform="translate(616.500000 22.500000)" fill="#FFFFFF" fill-opacity="0"/>
	<circle id="Ellipse 6" cx="707.000000" cy="25.000000" r="3.000000" fill="#F3F0EA" fill-opacity="1.000000"/>
	<circle id="Ellipse 11" cx="817.000000" cy="25.000000" r="3.000000" fill="#F3F0EA" fill-opacity="1.000000"/>
	<circle id="Ellipse 2" cx="619.000000" cy="25.000000" r="3.000000" fill="#F3F0EA" fill-opacity="1.000000"/>
	<circle id="Ellipse 7" cx="729.000000" cy="25.000000" r="3.000000" fill="#F3F0EA" fill-opacity="1.000000"/>
	<circle id="Ellipse 12" cx="839.000000" cy="25.000000" r="3.000000" fill="#F3F0EA" fill-opacity="1.000000"/>
	<circle id="Ellipse 3" cx="641.000000" cy="25.000000" r="3.000000" fill="#F3F0EA" fill-opacity="1.000000"/>
	<circle id="Ellipse 8" cx="751.000000" cy="25.000000" r="3.000000" fill="#F3F0EA" fill-opacity="1.000000"/>
	<circle id="Ellipse 13" cx="861.000000" cy="25.000000" r="3.000000" fill="#F3F0EA" fill-opacity="1.000000"/>
	<circle id="Ellipse 4" cx="663.000000" cy="25.000000" r="3.000000" fill="#F3F0EA" fill-opacity="1.000000"/>
	<circle id="Ellipse 9" cx="773.000000" cy="25.000000" r="3.000000" fill="#F3F0EA" fill-opacity="1.000000"/>
	<circle id="Ellipse 14" cx="883.000000" cy="25.000000" r="3.000000" fill="#F3F0EA" fill-opacity="1.000000"/>
	<circle id="Ellipse 5" cx="685.000000" cy="25.000000" r="3.000000" fill="#F3F0EA" fill-opacity="1.000000"/>
	<circle id="Ellipse 10" cx="795.000000" cy="25.000000" r="3.000000" fill="#F3F0EA" fill-opacity="1.000000"/>
	<circle id="Ellipse 15" cx="905.000000" cy="25.000000" r="3.000000" fill="#F3F0EA" fill-opacity="1.000000"/>
	<rect id="Row" rx="-0.500000" width="291.000000" height="5.000000" transform="translate(616.500000 66.500000)" fill="#FFFFFF" fill-opacity="0"/>
	<circle id="Ellipse 6" cx="707.000000" cy="69.000000" r="3.000000" fill="#F3F0EA" fill-opacity="1.000000"/>
	<circle id="Ellipse 11" cx="817.000000" cy="69.000000" r="3.000000" fill="#F3F0EA" fill-opacity="1.000000"/>
	<circle id="Ellipse 2" cx="619.000000" cy="69.000000" r="3.000000" fill="#F3F0EA" fill-opacity="1.000000"/>
	<circle id="Ellipse 7" cx="729.000000" cy="69.000000" r="3.000000" fill="#F3F0EA" fill-opacity="1.000000"/>
	<circle id="Ellipse 12" cx="839.000000" cy="69.000000" r="3.000000" fill="#F3F0EA" fill-opacity="1.000000"/>
	<circle id="Ellipse 3" cx="641.000000" cy="69.000000" r="3.000000" fill="#F3F0EA" fill-opacity="1.000000"/>
	<circle id="Ellipse 8" cx="751.000000" cy="69.000000" r="3.000000" fill="#F3F0EA" fill-opacity="1.000000"/>
	<circle id="Ellipse 13" cx="861.000000" cy="69.000000" r="3.000000" fill="#F3F0EA" fill-opacity="1.000000"/>
	<circle id="Ellipse 4" cx="663.000000" cy="69.000000" r="3.000000" fill="#F3F0EA" fill-opacity="1.000000"/>
	<circle id="Ellipse 9" cx="773.000000" cy="69.000000" r="3.000000" fill="#F3F0EA" fill-opacity="1.000000"/>
	<circle id="Ellipse 14" cx="883.000000" cy="69.000000" r="3.000000" fill="#F3F0EA" fill-opacity="1.000000"/>
	<circle id="Ellipse 5" cx="685.000000" cy="69.000000" r="3.000000" fill="#F3F0EA" fill-opacity="1.000000"/>
	<circle id="Ellipse 10" cx="795.000000" cy="69.000000" r="3.000000" fill="#F3F0EA" fill-opacity="1.000000"/>
	<circle id="Ellipse 15" cx="905.000000" cy="69.000000" r="3.000000" fill="#F3F0EA" fill-opacity="1.000000"/>
	<rect id="Grid" rx="-0.500000" width="291.000000" height="71.000000" transform="translate(1232.500000 0.500000)" fill="#FFFFFF" fill-opacity="0"/>
	<rect id="Row" rx="-0.500000" width="291.000000" height="5.000000" transform="translate(1232.500000 0.500000)" fill="#FFFFFF" fill-opacity="0"/>
	<circle id="Ellipse 6" cx="1323.000000" cy="3.000000" r="3.000000" fill="#F3F0EA" fill-opacity="1.000000"/>
	<circle id="Ellipse 11" cx="1433.000000" cy="3.000000" r="3.000000" fill="#F3F0EA" fill-opacity="1.000000"/>
	<circle id="Ellipse 2" cx="1235.000000" cy="3.000000" r="3.000000" fill="#F3F0EA" fill-opacity="1.000000"/>
	<circle id="Ellipse 7" cx="1345.000000" cy="3.000000" r="3.000000" fill="#F3F0EA" fill-opacity="1.000000"/>
	<circle id="Ellipse 12" cx="1455.000000" cy="3.000000" r="3.000000" fill="#F3F0EA" fill-opacity="1.000000"/>
	<circle id="Ellipse 3" cx="1257.000000" cy="3.000000" r="3.000000" fill="#F3F0EA" fill-opacity="1.000000"/>
	<circle id="Ellipse 8" cx="1367.000000" cy="3.000000" r="3.000000" fill="#F3F0EA" fill-opacity="1.000000"/>
	<circle id="Ellipse 13" cx="1477.000000" cy="3.000000" r="3.000000" fill="#F3F0EA" fill-opacity="1.000000"/>
	<circle id="Ellipse 4" cx="1279.000000" cy="3.000000" r="3.000000" fill="#F3F0EA" fill-opacity="1.000000"/>
	<circle id="Ellipse 9" cx="1389.000000" cy="3.000000" r="3.000000" fill="#F3F0EA" fill-opacity="1.000000"/>
	<circle id="Ellipse 14" cx="1499.000000" cy="3.000000" r="3.000000" fill="#F3F0EA" fill-opacity="1.000000"/>
	<circle id="Ellipse 5" cx="1301.000000" cy="3.000000" r="3.000000" fill="#F3F0EA" fill-opacity="1.000000"/>
	<circle id="Ellipse 10" cx="1411.000000" cy="3.000000" r="3.000000" fill="#F3F0EA" fill-opacity="1.000000"/>
	<circle id="Ellipse 15" cx="1521.000000" cy="3.000000" r="3.000000" fill="#F3F0EA" fill-opacity="1.000000"/>
	<rect id="Row" rx="-0.500000" width="291.000000" height="5.000000" transform="translate(1232.500000 44.500000)" fill="#FFFFFF" fill-opacity="0"/>
	<circle id="Ellipse 6" cx="1323.000000" cy="47.000000" r="3.000000" fill="#F3F0EA" fill-opacity="1.000000"/>
	<circle id="Ellipse 11" cx="1433.000000" cy="47.000000" r="3.000000" fill="#F3F0EA" fill-opacity="1.000000"/>
	<circle id="Ellipse 2" cx="1235.000000" cy="47.000000" r="3.000000" fill="#F3F0EA" fill-opacity="1.000000"/>
	<circle id="Ellipse 7" cx="1345.000000" cy="47.000000" r="3.000000" fill="#F3F0EA" fill-opacity="1.000000"/>
	<circle id="Ellipse 12" cx="1455.000000" cy="47.000000" r="3.000000" fill="#F3F0EA" fill-opacity="1.000000"/>
	<circle id="Ellipse 3" cx="1257.000000" cy="47.000000" r="3.000000" fill="#F3F0EA" fill-opacity="1.000000"/>
	<circle id="Ellipse 8" cx="1367.000000" cy="47.000000" r="3.000000" fill="#F3F0EA" fill-opacity="1.000000"/>
	<circle id="Ellipse 13" cx="1477.000000" cy="47.000000" r="3.000000" fill="#F3F0EA" fill-opacity="1.000000"/>
	<circle id="Ellipse 4" cx="1279.000000" cy="47.000000" r="3.000000" fill="#F3F0EA" fill-opacity="1.000000"/>
	<circle id="Ellipse 9" cx="1389.000000" cy="47.000000" r="3.000000" fill="#F3F0EA" fill-opacity="1.000000"/>
	<circle id="Ellipse 14" cx="1499.000000" cy="47.000000" r="3.000000" fill="#F3F0EA" fill-opacity="1.000000"/>
	<circle id="Ellipse 5" cx="1301.000000" cy="47.000000" r="3.000000" fill="#F3F0EA" fill-opacity="1.000000"/>
	<circle id="Ellipse 10" cx="1411.000000" cy="47.000000" r="3.000000" fill="#F3F0EA" fill-opacity="1.000000"/>
	<circle id="Ellipse 15" cx="1521.000000" cy="47.000000" r="3.000000" fill="#F3F0EA" fill-opacity="1.000000"/>
	<rect id="Row" rx="-0.500000" width="291.000000" height="5.000000" transform="translate(1232.500000 22.500000)" fill="#FFFFFF" fill-opacity="0"/>
	<circle id="Ellipse 6" cx="1323.000000" cy="25.000000" r="3.000000" fill="#F3F0EA" fill-opacity="1.000000"/>
	<circle id="Ellipse 11" cx="1433.000000" cy="25.000000" r="3.000000" fill="#F3F0EA" fill-opacity="1.000000"/>
	<circle id="Ellipse 2" cx="1235.000000" cy="25.000000" r="3.000000" fill="#F3F0EA" fill-opacity="1.000000"/>
	<circle id="Ellipse 7" cx="1345.000000" cy="25.000000" r="3.000000" fill="#F3F0EA" fill-opacity="1.000000"/>
	<circle id="Ellipse 12" cx="1455.000000" cy="25.000000" r="3.000000" fill="#F3F0EA" fill-opacity="1.000000"/>
	<circle id="Ellipse 3" cx="1257.000000" cy="25.000000" r="3.000000" fill="#F3F0EA" fill-opacity="1.000000"/>
	<circle id="Ellipse 8" cx="1367.000000" cy="25.000000" r="3.000000" fill="#F3F0EA" fill-opacity="1.000000"/>
	<circle id="Ellipse 13" cx="1477.000000" cy="25.000000" r="3.000000" fill="#F3F0EA" fill-opacity="1.000000"/>
	<circle id="Ellipse 4" cx="1279.000000" cy="25.000000" r="3.000000" fill="#F3F0EA" fill-opacity="1.000000"/>
	<circle id="Ellipse 9" cx="1389.000000" cy="25.000000" r="3.000000" fill="#F3F0EA" fill-opacity="1.000000"/>
	<circle id="Ellipse 14" cx="1499.000000" cy="25.000000" r="3.000000" fill="#F3F0EA" fill-opacity="1.000000"/>
	<circle id="Ellipse 5" cx="1301.000000" cy="25.000000" r="3.000000" fill="#F3F0EA" fill-opacity="1.000000"/>
	<circle id="Ellipse 10" cx="1411.000000" cy="25.000000" r="3.000000" fill="#F3F0EA" fill-opacity="1.000000"/>
	<circle id="Ellipse 15" cx="1521.000000" cy="25.000000" r="3.000000" fill="#F3F0EA" fill-opacity="1.000000"/>
	<rect id="Row" rx="-0.500000" width="291.000000" height="5.000000" transform="translate(1232.500000 66.500000)" fill="#FFFFFF" fill-opacity="0"/>
	<circle id="Ellipse 6" cx="1323.000000" cy="69.000000" r="3.000000" fill="#F3F0EA" fill-opacity="1.000000"/>
	<circle id="Ellipse 11" cx="1433.000000" cy="69.000000" r="3.000000" fill="#F3F0EA" fill-opacity="1.000000"/>
	<circle id="Ellipse 2" cx="1235.000000" cy="69.000000" r="3.000000" fill="#F3F0EA" fill-opacity="1.000000"/>
	<circle id="Ellipse 7" cx="1345.000000" cy="69.000000" r="3.000000" fill="#F3F0EA" fill-opacity="1.000000"/>
	<circle id="Ellipse 12" cx="1455.000000" cy="69.000000" r="3.000000" fill="#F3F0EA" fill-opacity="1.000000"/>
	<circle id="Ellipse 3" cx="1257.000000" cy="69.000000" r="3.000000" fill="#F3F0EA" fill-opacity="1.000000"/>
	<circle id="Ellipse 8" cx="1367.000000" cy="69.000000" r="3.000000" fill="#F3F0EA" fill-opacity="1.000000"/>
	<circle id="Ellipse 13" cx="1477.000000" cy="69.000000" r="3.000000" fill="#F3F0EA" fill-opacity="1.000000"/>
	<circle id="Ellipse 4" cx="1279.000000" cy="69.000000" r="3.000000" fill="#F3F0EA" fill-opacity="1.000000"/>
	<circle id="Ellipse 9" cx="1389.000000" cy="69.000000" r="3.000000" fill="#F3F0EA" fill-opacity="1.000000"/>
	<circle id="Ellipse 14" cx="1499.000000" cy="69.000000" r="3.000000" fill="#F3F0EA" fill-opacity="1.000000"/>
	<circle id="Ellipse 5" cx="1301.000000" cy="69.000000" r="3.000000" fill="#F3F0EA" fill-opacity="1.000000"/>
	<circle id="Ellipse 10" cx="1411.000000" cy="69.000000" r="3.000000" fill="#F3F0EA" fill-opacity="1.000000"/>
	<circle id="Ellipse 15" cx="1521.000000" cy="69.000000" r="3.000000" fill="#F3F0EA" fill-opacity="1.000000"/>
</svg>
