<svg width="124.000000" height="124.000000" viewBox="0 0 124 124" fill="none" xmlns="http://www.w3.org/2000/svg" xmlns:xlink="http://www.w3.org/1999/xlink">
	<desc>
			Created with Pixso.
	</desc>
	<defs/>
	<path id="Vector" d="M62.31 64.48C56.76 64.48 51.33 62.83 46.72 59.75C42.11 56.66 38.51 52.28 36.39 47.16C34.26 42.03 33.71 36.39 34.79 30.95C35.87 25.5 38.54 20.51 42.47 16.58C46.39 12.66 51.39 9.99 56.83 8.9C62.27 7.82 67.91 8.38 73.04 10.5C78.17 12.62 82.55 16.22 85.63 20.83C88.71 25.45 90.36 30.87 90.36 36.42C90.35 43.86 87.39 50.98 82.13 56.24C76.87 61.5 69.74 64.46 62.31 64.48ZM115.73 115.63L8.26 115.63L8.73 110.05C8.73 109.68 12.24 74.45 61.99 74.45C111.1 74.45 115.16 108.76 115.31 110.01C115.31 110.03 115.32 110.05 115.32 110.05L115.73 115.63Z" fill="#5A6482" fill-opacity="1.000000" fill-rule="evenodd"/>
</svg>
