<svg width="51" height="25" viewBox="0 0 51 25" fill="none" xmlns="http://www.w3.org/2000/svg">
<path opacity="0.5" d="M48.9491 24.4374H43.3662C41.2539 24.4374 40.6187 23.0618 36.8305 20.0151C33.5243 17.4516 32.1276 17.1316 31.2896 17.1316C30.134 17.1316 29.8164 17.387 29.8164 18.6703V22.7079C29.8164 23.8004 29.3764 24.4405 25.8291 24.4405C22.3866 24.2544 19.0482 23.4133 16.0891 21.9863C13.1299 20.5594 10.6346 18.5875 8.8087 16.233C4.47387 11.8938 1.45769 6.80103 0 1.35971C0 0.685748 0.317603 0.0764153 1.91327 0.0764153H7.49236C8.92732 0.0764153 9.4439 0.590348 10.0064 1.77516C12.7156 8.18855 17.3381 13.7649 19.2131 13.7649C19.9286 13.7649 20.2462 13.5094 20.2462 12.0661V5.46194C20.009 2.44912 18.0154 2.19369 18.0154 1.10428C18.0409 0.81638 18.2052 0.547874 18.4732 0.355904C18.7412 0.163933 19.0918 0.0636555 19.4503 0.0764153H28.2207C29.4184 0.0764153 29.8164 0.556496 29.8164 1.71054V10.6228C29.8164 11.586 30.333 11.9061 30.6927 11.9061C31.4082 11.9061 31.9669 11.586 33.2832 10.5274C36.1111 7.75771 38.4185 4.66796 40.1404 1.35663C40.3162 0.959222 40.6489 0.61898 41.0876 0.387829C41.5263 0.156678 42.047 0.047311 42.5703 0.0764153H48.1494C49.8254 0.0764153 50.1851 0.750375 49.8254 1.71054C47.7954 5.36786 45.2836 8.83957 42.333 12.0661C41.7323 12.8047 41.4912 13.1894 42.333 14.0541C42.8879 14.7281 44.8432 16.0422 46.1596 17.2916C48.0728 18.8273 49.6608 20.6029 50.8624 22.5479C51.3407 23.7973 50.5409 24.4374 48.9491 24.4374Z" fill="#1BE19A"/>
</svg>
