<svg width="97.822449" height="96.964478" viewBox="0 0 97.8224 96.9645" fill="none" xmlns="http://www.w3.org/2000/svg" xmlns:xlink="http://www.w3.org/1999/xlink">
	<desc>
			Created with Pixso.
	</desc>
	<defs/>
	<path id="Vector" d="M41.51 0C18.58 0 0 18.42 0 41.15C0 63.87 18.58 82.3 41.51 82.3C51.27 82.3 60.25 78.96 67.34 73.36L91.09 96.96L97.82 90.31L74.05 66.7C79.67 59.68 83.03 50.8 83.03 41.15C83.03 18.42 64.44 0 41.51 0ZM9.5 41.15C9.5 23.62 23.83 9.41 41.51 9.41C59.19 9.41 73.53 23.62 73.53 41.15C73.53 58.67 59.19 72.88 41.51 72.88C23.83 72.88 9.5 58.67 9.5 41.15Z" fill="#5A6482" fill-opacity="1.000000" fill-rule="evenodd"/>
</svg>
